<svg width="65" height="64" viewBox="0 0 65 64" fill="none" xmlns="http://www.w3.org/2000/svg">
<g filter="url(#filter0_d_294_716)">
<path d="M57.75 32C57.75 45.8071 46.5571 57 32.75 57C18.9429 57 7.75 45.8071 7.75 32C7.75 18.1929 18.9429 7 32.75 7C46.5571 7 57.75 18.1929 57.75 32Z" fill="#FEFCE8"/>
</g>
<path d="M57.75 32.0001C57.75 45.8072 46.5571 57.0001 32.75 57.0001C18.9429 57.0001 7.75 45.8072 7.75 32.0001C7.75 18.1929 18.9429 36.5 32.75 36.5C46.5571 36.5 57.75 18.1929 57.75 32.0001Z" fill="#FEF9C3"/>
<path d="M30.9204 36.6904H34.5394C35.3153 36.6904 35.9442 37.3194 35.9442 38.0952C35.9442 38.8711 35.3153 39.5 34.5394 39.5H30.9204C30.1446 39.5 29.5156 38.8711 29.5156 38.0952C29.5156 37.3194 30.1446 36.6904 30.9204 36.6904Z" fill="#0284C7" stroke="#0284C7"/>
<path d="M31.75 18.5C31.75 17.9477 32.1977 17.5 32.75 17.5V17.5C33.3023 17.5 33.75 17.9477 33.75 18.5V29.5559C33.75 30.1082 33.3023 30.5559 32.75 30.5559V30.5559C32.1977 30.5559 31.75 30.1082 31.75 29.5559V18.5Z" fill="#EAB308"/>
<path d="M38.6524 19.5734C39.0219 19.3623 39.25 18.9693 39.25 18.5437V18.5437C39.25 17.633 38.2662 17.0621 37.4756 17.5139L37.3272 17.5987C37.133 17.7097 36.9132 17.7681 36.6895 17.7681H36.3567C36.0698 17.7681 35.7862 17.7063 35.5252 17.587L30.7693 15.413C30.5084 15.2937 30.2248 15.2319 29.9379 15.2319H29.6318C29.3884 15.2319 29.1472 15.2763 28.9198 15.363L26.757 16.1868C26.2621 16.3754 25.935 16.85 25.935 17.3797V17.3797C25.935 18.2738 26.8304 18.8909 27.6659 18.5726L28.9198 18.0949C29.1472 18.0083 29.3884 17.9639 29.6318 17.9639H29.9379C30.2248 17.9639 30.5084 18.0256 30.7693 18.1449L35.5252 20.319C35.7862 20.4383 36.0698 20.5 36.3567 20.5H36.4997C36.8478 20.5 37.1898 20.4092 37.492 20.2365L38.6524 19.5734Z" fill="#EAB308"/>
<path d="M26.2328 25.0503L25.0892 26.6912L26.2328 25.0503C23.0714 22.8471 21.1309 20.1037 21.1309 16.6963C21.1309 10.6065 25.7434 6.00024 32.7499 6.00024C39.7565 6.00024 44.369 10.6065 44.369 16.6963C44.369 20.1037 42.4284 22.8471 39.2671 25.0503C38.6848 25.4561 38.3747 26.0204 38.2086 26.389C38.0275 26.791 37.9035 27.223 37.8117 27.6103C37.6535 28.2783 37.5362 29.0645 37.4337 29.7511C37.419 29.8497 37.4046 29.9462 37.3904 30.04C37.2871 30.7239 37.1936 31.2842 37.0852 31.7145H37.081H37.0708H37.0607H37.0505H37.0403H37.0301H37.0199H37.0097H36.9995H36.9892H36.979H36.9687H36.9584H36.9481H36.9378H36.9275H36.9172H36.9069H36.8965H36.8862H36.8758H36.8654H36.855H36.8446H36.8342H36.8238H36.8133H36.8029H36.7924H36.782H36.7715H36.761H36.7505H36.74H36.7295H36.719H36.7084H36.6979H36.6873H36.6768H36.6662H36.6556H36.645H36.6344H36.6238H36.6131H36.6025H36.5919H36.5812H36.5705H36.5599H36.5492H36.5385H36.5278H36.5171H36.5064H36.4957H36.4849H36.4742H36.4634H36.4527H36.4419H36.4311H36.4203H36.4095H36.3987H36.3879H36.3771H36.3663H36.3555H36.3446H36.3338H36.3229H36.312H36.3012H36.2903H36.2794H36.2685H36.2576H36.2467H36.2358H36.2249H36.2139H36.203H36.1921H36.1811H36.1701H36.1592H36.1482H36.1372H36.1262H36.1153H36.1043H36.0933H36.0822H36.0712H36.0602H36.0492H36.0381H36.0271H36.0161H36.005H35.9939H35.9829H35.9718H35.9607H35.9496H35.9386H35.9275H35.9164H35.9053H35.8942H35.8831H35.8719H35.8608H35.8497H35.8385H35.8274H35.8163H35.8051H35.794H35.7828H35.7717H35.7605H35.7493H35.7381H35.727H35.7158H35.7046H35.6934H35.6822H35.671H35.6598H35.6486H35.6374H35.6262H35.615H35.6038H35.5925H35.5813H35.5701H35.5588H35.5476H35.5364H35.5251H35.5139H35.5026H35.4914H35.4801H35.4689H35.4576H35.4463H35.4351H35.4238H35.4125H35.4013H35.39H35.3787H35.3674H35.3562H35.3449H35.3336H35.3223H35.311H35.2997H35.2884H35.2771H35.2658H35.2546H35.2433H35.232H35.2207H35.2094H35.198H35.1867H35.1754H35.1641H35.1528H35.1415H35.1302H35.1189H35.1076H35.0963H35.085H35.0737H35.0623H35.051H35.0397H35.0284H35.0171H35.0058H34.9945H34.9832H34.9718H34.9605H34.9492H34.9379H34.9266H34.9153H34.904H34.8927H34.8814H34.87H34.8587H34.8474H34.8361H34.8248H34.8135H34.8022H34.7909H34.7796H34.7683H34.757H34.7457H34.7344H34.7231H34.7118H34.7005H34.6893H34.678H34.6667H34.6554H34.6441H34.6328H34.6216H34.6103H34.599H34.5877H34.5765H34.5652H34.5539H34.5427H34.5314H34.5202H34.5089H34.4977H34.4864H34.4752H34.4639H34.4527H34.4415H34.4302H34.419H34.4078H34.3966H34.3854H34.3741H34.3629H34.3517H34.3405H34.3293H34.3181H34.3069H34.2958H34.2846H34.2734H34.2622H34.2511H34.2399H34.2287H34.2176H34.2064H34.1953H34.1841H34.173H34.1619H34.1507H34.1396H34.1285H34.1174H34.1063H34.0952H34.0841H34.073H34.0619H34.0508H34.0397H34.0287H34.0176H34.0065H33.9955H33.9844H33.9734H33.9624H33.9513H33.9403H33.9293H33.9183H33.9073H33.8963H33.8853H33.8743H33.8633H33.8523H33.8414H33.8304H33.8195H33.8085H33.7976H33.7866H33.7757H33.7648H33.7539H33.743H33.7321H33.7212H33.7103H33.6995H33.6886H33.6777H33.6669H33.656H33.6452H33.6344H33.6236H33.6128H33.6019H33.5912H33.5804H33.5696H33.5588H33.5481H33.5373H33.5266H33.5158H33.5051H33.4944H33.4837H33.473H33.4623H33.4516H33.4409H33.4303H33.4196H33.409H33.3983H33.3877H33.3771H33.3665H33.3559H33.3453H33.3347H33.3241H33.3136H33.303H33.2925H33.282H33.2715H33.2609H33.2504H33.24H33.2295H33.219H33.2086H33.1981H33.1877H33.1772H33.1668H33.1564H33.146H33.1357H33.1253H33.1149H33.1046H33.0942H33.0839H33.0736H33.0633H33.053H33.0427H33.0325H33.0222H33.012H33.0017H32.9915H32.9813H32.9711H32.9609H32.9507H32.9406H32.9304H32.9203H32.9102H32.9001H32.89H32.8799H32.8698H32.8597H32.8497H32.8397H32.8296H32.8196H32.8096H32.7997H32.7897H32.7797H32.7698H32.7599H32.7499H32.74H32.7301H32.7202H32.7102H32.7003H32.6904H32.6804H32.6704H32.6605H32.6505H32.6405H32.6305H32.6205H32.6105H32.6005H32.5905H32.5805H32.5705H32.5604H32.5504H32.5403H32.5303H32.5202H32.5102H32.5001H32.49H32.4799H32.4698H32.4597H32.4496H32.4395H32.4294H32.4193H32.4091H32.399H32.3889H32.3787H32.3686H32.3584H32.3482H32.3381H32.3279H32.3177H32.3075H32.2973H32.2871H32.2769H32.2667H32.2565H32.2463H32.236H32.2258H32.2156H32.2053H32.1951H32.1848H32.1745H32.1643H32.154H32.1437H32.1334H32.1231H32.1128H32.1025H32.0922H32.0819H32.0716H32.0613H32.051H32.0406H32.0303H32.02H32.0096H31.9993H31.9889H31.9785H31.9682H31.9578H31.9474H31.937H31.9267H31.9163H31.9059H31.8955H31.8851H31.8747H31.8642H31.8538H31.8434H31.833H31.8225H31.8121H31.8017H31.7912H31.7808H31.7703H31.7598H31.7494H31.7389H31.7284H31.7179H31.7075H31.697H31.6865H31.676H31.6655H31.655H31.6445H31.634H31.6235H31.6129H31.6024H31.5919H31.5814H31.5708H31.5603H31.5497H31.5392H31.5286H31.5181H31.5075H31.497H31.4864H31.4758H31.4653H31.4547H31.4441H31.4335H31.4229H31.4123H31.4017H31.3911H31.3805H31.3699H31.3593H31.3487H31.3381H31.3275H31.3169H31.3062H31.2956H31.285H31.2743H31.2637H31.2531H31.2424H31.2318H31.2211H31.2105H31.1998H31.1891H31.1785H31.1678H31.1571H31.1465H31.1358H31.1251H31.1144H31.1038H31.0931H31.0824H31.0717H31.061H31.0503H31.0396H31.0289H31.0182H31.0075H30.9968H30.9861H30.9754H30.9647H30.9539H30.9432H30.9325H30.9218H30.911H30.9003H30.8896H30.8788H30.8681H30.8574H30.8466H30.8359H30.8251H30.8144H30.8036H30.7929H30.7821H30.7714H30.7606H30.7499H30.7391H30.7284H30.7176H30.7068H30.6961H30.6853H30.6745H30.6637H30.653H30.6422H30.6314H30.6206H30.6099H30.5991H30.5883H30.5775H30.5667H30.5559H30.5451H30.5344H30.5236H30.5128H30.502H30.4912H30.4804H30.4696H30.4588H30.448H30.4372H30.4264H30.4156H30.4048H30.394H30.3832H30.3724H30.3616H30.3507H30.3399H30.3291H30.3183H30.3075H30.2967H30.2859H30.2751H30.2642H30.2534H30.2426H30.2318H30.221H30.2102H30.1993H30.1885H30.1777H30.1669H30.1561H30.1452H30.1344H30.1236H30.1128H30.102H30.0911H30.0803H30.0695H30.0587H30.0479H30.037H30.0262H30.0154H30.0046H29.9937H29.9829H29.9721H29.9613H29.9504H29.9396H29.9288H29.918H29.9072H29.8963H29.8855H29.8747H29.8639H29.8531H29.8422H29.8314H29.8206H29.8098H29.799H29.7881H29.7773H29.7665H29.7557H29.7449H29.7341H29.7232H29.7124H29.7016H29.6908H29.68H29.6692H29.6584H29.6476H29.6368H29.626H29.6152H29.6044H29.5935H29.5827H29.5719H29.5611H29.5503H29.5395H29.5287H29.518H29.5072H29.4964H29.4856H29.4748H29.464H29.4532H29.4424H29.4316H29.4208H29.4101H29.3993H29.3885H29.3777H29.367H29.3562H29.3454H29.3346H29.3239H29.3131H29.3023H29.2916H29.2808H29.27H29.2593H29.2485H29.2378H29.227H29.2163H29.2055H29.1948H29.184H29.1733H29.1625H29.1518H29.1411H29.1303H29.1196H29.1089H29.0981H29.0874H29.0767H29.066H29.0552H29.0445H29.0338H29.0231H29.0124H29.0017H28.991H28.9803H28.9696H28.9589H28.9482H28.9375H28.9268H28.9161H28.9054H28.8947H28.8841H28.8734H28.8627H28.8521H28.8414H28.8307H28.8201H28.8094H28.7987H28.7881H28.7774H28.7668H28.7562H28.7455H28.7349H28.7242H28.7136H28.703H28.6924H28.6817H28.6711H28.6605H28.6499H28.6393H28.6287H28.6181H28.6075H28.5969H28.5863H28.5757H28.5651H28.5546H28.544H28.5334H28.5229H28.5123H28.5017H28.4912H28.4806H28.4701H28.4595H28.449H28.4384H28.4279H28.4174H28.4146C28.3063 31.2842 28.2127 30.7239 28.1094 30.04C28.0952 29.9462 28.0808 29.8497 28.0661 29.7511C27.9637 29.0645 27.8464 28.2782 27.6881 27.6103C27.5963 27.2229 27.4723 26.791 27.2912 26.389C27.1251 26.0204 26.815 25.4561 26.2328 25.0503Z" stroke="#0284C7" stroke-width="4"/>
<path d="M4.75 60L25.75 36H28.75L23.25 44H42.25L36.75 36H39.75L60.75 60H53.75L44.75 48H20.75L11.75 60H4.75Z" fill="#0284C7"/>
<defs>
<filter id="filter0_d_294_716" x="6.75" y="7" width="52" height="52" filterUnits="userSpaceOnUse" color-interpolation-filters="sRGB">
<feFlood flood-opacity="0" result="BackgroundImageFix"/>
<feColorMatrix in="SourceAlpha" type="matrix" values="0 0 0 0 0 0 0 0 0 0 0 0 0 0 0 0 0 0 127 0" result="hardAlpha"/>
<feOffset dy="1"/>
<feGaussianBlur stdDeviation="0.5"/>
<feComposite in2="hardAlpha" operator="out"/>
<feColorMatrix type="matrix" values="0 0 0 0 0 0 0 0 0 0 0 0 0 0 0 0 0 0 0.25 0"/>
<feBlend mode="normal" in2="BackgroundImageFix" result="effect1_dropShadow_294_716"/>
<feBlend mode="normal" in="SourceGraphic" in2="effect1_dropShadow_294_716" result="shape"/>
</filter>
</defs>
</svg>
